<svg width="573" height="143" viewBox="0 0 573 143" fill="none" xmlns="http://www.w3.org/2000/svg">
<g clip-path="url(#clip0_214_602)">
<g clip-path="url(#clip1_214_602)">
<path d="M141.832 79.1474V63.9011C141.832 58.3098 137.296 53.7737 131.705 53.7737H116.459C110.868 53.7737 106.332 58.3098 106.332 63.9011V79.1474C106.332 84.7387 110.868 89.2748 116.459 89.2748H131.705C137.296 89.2748 141.832 84.7387 141.832 79.1474Z" fill="#161616"/>
<path d="M41.5843 37.1271L41.6473 37.0956C42.9861 36.4813 44.4508 36.1506 45.9313 36.1506H96.0788C101.749 36.1506 106.348 31.5515 106.348 25.8814V10.9186C106.348 5.2485 101.749 0.649414 96.0788 0.649414H45.8526C40.1826 0.649414 35.5837 5.2485 35.5837 10.9186V25.8184C35.5837 27.2989 35.2687 28.7637 34.6387 30.1024L34.6072 30.1654C33.5834 32.3862 31.8037 34.1818 29.5672 35.2055C28.2285 35.8198 26.7637 36.1506 25.2833 36.1506H10.3524C4.68245 36.1506 0.0834961 40.7496 0.0834961 46.4197V96.6474C0.0834961 102.317 4.68245 106.917 10.3524 106.917H25.236C26.7165 106.917 28.1812 107.232 29.52 107.862H29.5672C31.7879 108.901 33.5834 110.697 34.6072 112.917L34.6387 112.98C35.2529 114.319 35.5837 115.784 35.5837 117.265V132.149C35.5837 137.819 40.1826 142.418 45.8526 142.418H96.0788C101.749 142.418 106.348 137.819 106.348 132.149V117.17C106.348 111.5 101.749 106.901 96.0788 106.901H45.9156C44.4351 106.901 42.9703 106.586 41.6316 105.956H41.5843C39.3636 104.916 37.5681 103.121 36.5444 100.9V100.868C35.9144 99.5297 35.5837 98.0649 35.5837 96.5844V46.4827C35.5837 45.0022 35.8986 43.5374 36.5286 42.1987V42.1672C37.5681 39.9464 39.3479 38.1508 41.5843 37.1271Z" fill="#161616"/>
</g>
<path d="M177.017 71.4613C177.017 44.1975 196.421 24.3049 222.708 24.3049C242.237 24.3049 256.475 35.3616 261.263 48.3714L246.285 55.3645C242.726 46.1506 234.252 39.5197 222.708 39.5197C205.509 39.5197 193.728 52.4192 193.728 71.4455C193.728 90.4719 205.524 103.497 222.708 103.497C234.252 103.497 242.726 96.8665 246.285 87.6526L261.263 94.6457C256.475 107.671 242.222 118.712 222.708 118.712C196.547 118.712 177.017 98.6935 177.017 71.4298V71.4613Z" fill="#161616"/>
<path d="M271.816 25.77H287.896V42.9693H271.816V25.77ZM271.816 50.4507H287.896V117.263H271.816V50.4665V50.4507Z" fill="#161616"/>
<path d="M301.158 50.4676H316.262V59.9177C319.695 52.3103 326.09 49.7273 334.311 49.7273H338.248V63.9656H332.484C323.396 63.9656 317.254 69.8562 317.254 80.0466V117.265H301.173V50.4676H301.158Z" fill="#161616"/>
<path d="M345.478 50.4669H360.582V58.3262C365.37 52.4356 372.867 48.9863 382.064 48.9863C401.106 48.9863 415.706 64.2169 415.706 83.8575C415.706 103.498 401.342 118.729 381.938 118.729C373.827 118.729 366.472 116.035 361.558 110.869V141.818H345.478V50.4669ZM399.027 83.8732C399.027 72.3282 391.042 63.7286 380.111 63.7286C369.181 63.7286 361.574 72.2022 361.574 83.8732C361.574 95.5442 369.433 104.018 380.111 104.018C390.79 104.018 399.027 95.5442 399.027 83.8732Z" fill="#161616"/>
<path d="M424.794 24.3049H440.875V117.279H424.794V24.3049Z" fill="#161616"/>
<path d="M452.797 91.3562V50.4685H468.878V90.0175C468.878 98.4911 474.406 104.019 482.391 104.019C490.376 104.019 495.904 98.4911 495.904 89.6552V50.4843H511.985V117.297H496.755V109.312C493.069 115.58 486.313 118.762 477.965 118.762C462.247 118.762 452.797 107.705 452.797 91.372V91.3562Z" fill="#161616"/>
<path d="M518.096 99.8282L530.129 94.0479C533.688 101.545 540.083 106.081 547.564 106.081C553.344 106.081 557.14 103.372 557.14 98.962C557.14 95.1504 553.706 93.1974 549.407 91.9688L538.476 88.8975C527.183 85.7002 521.277 78.7071 521.277 69.4932C521.277 57.208 531.467 48.9863 545.957 48.9863C558.478 48.9863 568.795 55.4912 572.968 66.2959L560.683 72.0605C558.478 66.0439 552.572 62.1063 545.831 62.1063C540.429 62.1063 537.106 64.8154 537.106 68.7372C537.106 72.659 540.303 74.3915 544.965 75.7303L555.643 78.9276C566.7 82.1249 572.842 88.992 572.842 98.332C572.842 110.491 562.652 118.713 547.548 118.713C533.31 118.713 522.002 111.342 518.08 99.7967L518.096 99.8282Z" fill="#161616"/>
</g>
<defs>
<clipPath id="clip0_214_602">
<rect width="572.917" height="141.753" fill="white" transform="translate(0.0834961 0.649414)"/>
</clipPath>
<clipPath id="clip1_214_602">
<rect width="141.749" height="141.768" fill="white" transform="translate(0.0834961 0.649414)"/>
</clipPath>
</defs>
</svg>
