<svg width="220" height="55" viewBox="0 0 220 55" fill="none" xmlns="http://www.w3.org/2000/svg">
<g clip-path="url(#clip0_1441_7648)">
<g clip-path="url(#clip1_1441_7648)">
<path d="M54.514 30.188V24.3246C54.514 22.1742 52.77 20.4297 50.619 20.4297H44.756C42.606 20.4297 40.861 22.1742 40.861 24.3246V30.188C40.861 32.3384 42.606 34.0829 44.756 34.0829H50.619C52.77 34.0829 54.514 32.3384 54.514 30.188Z" fill="#141414"/>
<path d="M15.96 14.0286L15.985 14.0165C16.5 13.7803 17.063 13.6531 17.632 13.6531H36.918C39.099 13.6531 40.867 11.8844 40.867 9.70374V3.94934C40.867 1.76871 39.099 0 36.918 0H17.602C15.421 0 13.653 1.76871 13.653 3.94934V9.67955C13.653 10.2489 13.532 10.8122 13.289 11.3271L13.277 11.3513C12.883 12.2054 12.199 12.8959 11.339 13.2896C10.824 13.5259 10.261 13.6531 9.69101 13.6531H3.94901C1.76901 13.6531 0 15.4218 0 17.6024V36.9188C0 39.0994 1.76901 40.8681 3.94901 40.8681H9.67301C10.243 40.8681 10.806 40.9893 11.321 41.2315H11.339C12.193 41.6313 12.883 42.3218 13.277 43.1759L13.289 43.2001C13.526 43.7151 13.653 44.2784 13.653 44.8477V50.5719C13.653 52.7525 15.421 54.5212 17.602 54.5212H36.918C39.099 54.5212 40.867 52.7525 40.867 50.5719V44.8114C40.867 42.6308 39.099 40.8621 36.918 40.8621H17.626C17.057 40.8621 16.494 40.7409 15.979 40.4987H15.96C15.106 40.0989 14.416 39.4084 14.022 38.5543V38.5422C13.78 38.0273 13.653 37.4639 13.653 36.8946V17.6267C13.653 17.0573 13.774 16.4939 14.016 15.9791V15.967C14.416 15.1129 15.1 14.4224 15.96 14.0286Z" fill="#141414"/>
</g>
<path d="M68.045 27.2331C68.045 16.748 75.507 9.09766 85.617 9.09766C93.127 9.09766 98.603 13.3498 100.444 18.3532L94.684 21.0426C93.315 17.4991 90.056 14.949 85.617 14.949C79.002 14.949 74.472 19.9099 74.472 27.2271C74.472 34.5443 79.008 39.5537 85.617 39.5537C90.056 39.5537 93.315 37.0036 94.684 33.4601L100.444 36.1495C98.603 41.1589 93.121 45.4046 85.617 45.4046C75.556 45.4046 68.045 37.7061 68.045 27.2211V27.2331Z" fill="black"/>
<path d="M104.502 9.66016H110.686V16.2747H104.502V9.66016ZM104.502 19.1519H110.686V44.8469H104.502V19.1579V19.1519Z" fill="black"/>
<path d="M115.787 19.1597H121.596V22.794C122.916 19.8684 125.376 18.875 128.537 18.875H130.052V24.3508H127.835C124.34 24.3508 121.977 26.6162 121.977 30.5352V44.8488H115.793V19.1597H115.787Z" fill="black"/>
<path d="M132.832 19.1592H138.641V22.1818C140.482 19.9164 143.365 18.5898 146.903 18.5898C154.226 18.5898 159.841 24.4472 159.841 32.0006C159.841 39.5539 154.317 45.4117 146.854 45.4117C143.735 45.4117 140.906 44.3758 139.016 42.3888V54.2917H132.832V19.1592ZM153.426 32.0067C153.426 27.5667 150.355 24.2594 146.152 24.2594C141.948 24.2594 139.022 27.5183 139.022 32.0067C139.022 36.4951 142.045 39.7539 146.152 39.7539C150.258 39.7539 153.426 36.4951 153.426 32.0067Z" fill="black"/>
<path d="M163.336 9.09766H169.52V44.8539H163.336V9.09766Z" fill="black"/>
<path d="M174.105 34.8848V19.1601H180.29V34.3699C180.29 37.6287 182.416 39.7551 185.487 39.7551C188.558 39.7551 190.684 37.6287 190.684 34.2305V19.1662H196.868V44.8608H191.011V41.7897C189.594 44.2005 186.995 45.4241 183.785 45.4241C177.74 45.4241 174.105 41.1715 174.105 34.8908V34.8848Z" fill="black"/>
<path d="M199.219 38.1428L203.847 35.9195C205.215 38.8027 207.675 40.5472 210.552 40.5472C212.775 40.5472 214.235 39.5053 214.235 37.8092C214.235 36.3433 212.914 35.5924 211.26 35.1199L207.057 33.9387C202.714 32.7091 200.442 30.0197 200.442 26.4762C200.442 21.7515 204.361 18.5896 209.934 18.5896C214.749 18.5896 218.717 21.0913 220.322 25.2466L215.597 27.4635C214.749 25.1497 212.478 23.6353 209.886 23.6353C207.808 23.6353 206.53 24.6772 206.53 26.1855C206.53 27.6937 207.759 28.36 209.552 28.8749L213.659 30.1045C217.911 31.3341 220.273 33.9751 220.273 37.5669C220.273 42.2432 216.355 45.4051 210.546 45.4051C205.07 45.4051 200.721 42.5703 199.213 38.1307L199.219 38.1428Z" fill="black"/>
</g>
<defs>
<clipPath id="clip0_1441_7648">
<rect width="220.333" height="54.5155" fill="white"/>
</clipPath>
<clipPath id="clip1_1441_7648">
<rect width="54.5139" height="54.5215" fill="white"/>
</clipPath>
</defs>
</svg>
