<svg width="468" height="100" viewBox="0 0 468 100" fill="none" xmlns="http://www.w3.org/2000/svg">
<path d="M69.5332 6.81067C64.6626 -0.959352 53.3389 -0.959352 48.4683 6.81067L2.59472 79.9856C-2.59608 88.2605 3.35825 99.0166 13.1241 99.0166H18.6104L18.6289 98.992L56.978 37.546C58.7329 34.72 70.0011 18.4472 84.2435 30.2808L69.527 6.81067H69.5332Z" fill="url(#paint0_linear_172_7388)"/>
<g style="mix-blend-mode:overlay">
<path d="M3.76466 81.7773L49.6444 8.60234C53.7515 2.05754 63.0555 1.02933 68.6034 5.52388C63.3449 -0.922408 53.0557 -0.497581 48.4683 6.81683L2.59473 79.9856C-0.976633 85.6808 0.729003 92.5457 5.32252 96.2768C2.14523 92.3856 0.716688 86.6536 3.77082 81.7773H3.76466Z" fill="white" fill-opacity="0.5"/>
</g>
<g style="mix-blend-mode:multiply">
<path d="M19.1282 98.167L56.96 37.5522C58.7149 34.7262 69.9832 18.4534 84.2255 30.287L72.7602 12.001C65.2419 8.82403 56.726 15.0918 53.598 20.085L14.3253 82.7316C10.6923 88.5253 13.4386 95.735 19.1343 98.1732L19.1282 98.167Z" fill="url(#paint1_linear_172_7388)"/>
</g>
<path d="M5.48875 75.368L2.59472 79.9857C-2.59608 88.2606 3.35825 99.0167 13.1241 99.0167H104.877C114.649 99.0167 120.598 88.2667 115.407 79.9857L112.513 75.368H34.5584C31.2334 75.368 14.0539 75.996 16.5908 57.6545L5.48875 75.368Z" fill="url(#paint2_linear_172_7388)"/>
<g style="mix-blend-mode:overlay">
<path d="M115.407 79.9857L112.512 75.368H34.5582C31.2331 75.368 14.0537 75.996 16.5906 57.6545C16.5906 57.6545 8.85671 77.3505 32.0336 77.3505H109.988L112.882 81.9682C116.164 87.2077 114.982 93.4385 111.201 97.3051C116.872 93.9434 119.341 86.2596 115.407 79.9857Z" fill="white"/>
</g>
<g style="mix-blend-mode:multiply">
<path d="M105.13 91.7207L102.236 87.103H24.2752C21.2826 87.103 7.08952 87.6017 6.11663 74.3582L5.4824 75.3679L2.58837 79.9856C-2.60243 88.2605 3.3519 99.0166 13.1177 99.0166H104.871C105.616 99.0166 106.33 98.9489 107.026 98.8319C107.131 96.4615 106.552 93.9987 105.123 91.7268L105.13 91.7207Z" fill="url(#paint3_linear_172_7388)"/>
</g>
<path d="M115.406 79.9857L84.2432 30.281C72.5193 20.5469 62.815 29.8438 58.7695 35.0156L82.1127 72.031C86.1028 78.3357 91.349 93.2169 73.7508 98.9798L105.136 99.0106C114.748 98.8197 120.548 88.1929 115.406 79.9919V79.9857Z" fill="url(#paint4_linear_172_7388)"/>
<g style="mix-blend-mode:overlay">
<path d="M84.2434 30.281C82.8887 29.1543 81.5587 28.2923 80.2656 27.6396L113.196 79.9857C118.331 88.1744 111.94 98.7828 102.359 99.0044H105.142C114.754 98.8197 120.554 88.1867 115.413 79.9857L84.2495 30.281H84.2434Z" fill="white" fill-opacity="0.5"/>
</g>
<g style="mix-blend-mode:multiply">
<path d="M66.8851 27.8736C63.3199 29.7822 60.5183 32.7806 58.7695 35.0095L82.1127 72.0248C86.1028 78.3295 91.349 93.2108 73.7508 98.9736L88.0486 98.986C97.5127 98.6165 104.391 86.6721 98.2085 76.8703L66.8851 27.8674V27.8736Z" fill="url(#paint5_linear_172_7388)"/>
</g>
<path d="M164.03 86.5L135.73 16H152.73L171.03 65.3L189.33 16H205.93L177.63 86.5H164.03ZM217.43 86V16H232.83V86H217.43ZM275.224 87C264.624 87 253.924 83.3 245.524 75.8L254.624 64.9C260.924 70.1 267.524 73.4 275.524 73.4C281.824 73.4 285.624 70.9 285.624 66.8V66.6C285.624 62.7 283.224 60.7 271.524 57.7C257.424 54.1 248.324 50.2 248.324 36.3V36.1C248.324 23.4 258.524 15 272.824 15C283.024 15 291.724 18.2 298.824 23.9L290.824 35.5C284.624 31.2 278.524 28.6 272.624 28.6C266.724 28.6 263.624 31.3 263.624 34.7V34.9C263.624 39.5 266.624 41 278.724 44.1C292.924 47.8 300.924 52.9 300.924 65.1V65.3C300.924 79.2 290.324 87 275.224 87ZM343.489 87.1C324.689 87.1 313.189 76.6 313.189 56V16H328.589V55.6C328.589 67 334.289 72.9 343.689 72.9C353.089 72.9 358.789 67.2 358.789 56.1V16H374.189V55.5C374.189 76.7 362.289 87.1 343.489 87.1ZM423.875 87.2C402.275 87.2 386.775 71.1 386.775 51.2V51C386.775 31.1 402.475 14.8 424.075 14.8C445.675 14.8 461.175 30.9 461.175 50.8V51C461.175 70.9 445.475 87.2 423.875 87.2ZM424.075 73C436.475 73 445.075 63.2 445.075 51.2V51C445.075 39 436.275 29 423.875 29C411.475 29 402.875 38.8 402.875 50.8V51C402.875 63 411.675 73 424.075 73Z" fill="#131002"/>
<defs>
<linearGradient id="paint0_linear_172_7388" x1="64.1107" y1="11.6306" x2="43.6675" y2="94.8724" gradientUnits="userSpaceOnUse">
<stop stop-color="#2D66C4"/>
<stop offset="0.587478" stop-color="#2D66C4"/>
<stop offset="1" stop-color="#FFC700"/>
</linearGradient>
<linearGradient id="paint1_linear_172_7388" x1="29.3059" y1="76.8026" x2="63.6127" y2="19.4051" gradientUnits="userSpaceOnUse">
<stop stop-color="#FFC348"/>
<stop offset="1" stop-color="#050B8C" stop-opacity="0"/>
</linearGradient>
<linearGradient id="paint2_linear_172_7388" x1="85.9584" y1="87.2409" x2="0.67627" y2="87.2409" gradientUnits="userSpaceOnUse">
<stop stop-color="#A70CBA"/>
<stop offset="0.5" stop-color="#FFC700"/>
</linearGradient>
<linearGradient id="paint3_linear_172_7388" x1="85.2329" y1="93.87" x2="0.673268" y2="93.87" gradientUnits="userSpaceOnUse">
<stop stop-color="#F201F6"/>
<stop offset="1" stop-color="#FFC701" stop-opacity="0"/>
</linearGradient>
<linearGradient id="paint4_linear_172_7388" x1="68.9682" y1="47.173" x2="88.5207" y2="98.9838" gradientUnits="userSpaceOnUse">
<stop stop-color="#2D66C4"/>
<stop offset="0.404959" stop-color="#9500FF"/>
<stop offset="1" stop-color="#F200F1"/>
</linearGradient>
<linearGradient id="paint5_linear_172_7388" x1="67.9531" y1="44.3648" x2="106.061" y2="99.0203" gradientUnits="userSpaceOnUse">
<stop stop-color="#2D66C4"/>
<stop offset="1" stop-color="#F201F6" stop-opacity="0"/>
</linearGradient>
</defs>
</svg>
